<?xml version="1.0" encoding="utf-8"?>
<!-- Generator: Adobe Illustrator 25.3.1, SVG Export Plug-In . SVG Version: 6.00 Build 0)  -->
<svg version="1.1" id="Camada_1" xmlns="http://www.w3.org/2000/svg" xmlns:xlink="http://www.w3.org/1999/xlink" x="0px" y="0px"
	 viewBox="0 0 408.9 318.2" style="enable-background:new 0 0 408.9 318.2;" xml:space="preserve">
<style type="text/css">
	.st0{fill:#18345B;}
</style>
<g>
	<path class="st0" d="M408.9,274.1c-3.9,5.7-7.5,5.8-12,0.5c-18.7-22.2-37.3-44.4-55.9-66.6c-0.8-1-1.7-2-2.7-3.1
		c-12.8,10.8-25.4,21.4-38.3,32.2c4.8,5.8,9.5,11.3,14.4,17.2c3.5-2.9,6.8-5.8,10.2-8.5c4-3.3,7.3-3.5,9.8-0.6
		c2.4,2.8,1.7,6.5-2,9.6c-3.3,2.8-6.7,5.6-10.3,8.6c4.7,5.6,9.3,11.1,14.2,16.9c3.8-3.2,7.3-6.2,10.9-9.1c2.6-2.1,5.4-2.9,8.3-0.7
		c3.2,2.5,3.1,6.5-0.4,9.6c-3.6,3.2-7.3,6.2-11.1,9.3c5.2,6.2,10.1,12.1,15.1,18c2.1,2.4,3,5.1,1.3,8c-2.2,3.7-7,3.7-10.4-0.2
		c-7.3-8.6-14.6-17.3-21.8-26c-12-14.3-23.9-28.5-35.9-42.8c-5.8-6.9-5.7-12.4,0.6-19.4c-1.4-1.7-2.8-3.6-4.4-5.4
		c-4-4.6-6.5-9.8-8-15.8c-0.8-3.2-2.8-6.1-4.4-9.1c-0.6-1-1.5-1.9-2.3-2.8c-5.7-6.9-5.7-10.1,0.4-17.3c-7.1-8.5-14.3-17-21.4-25.6
		c-4.2-5-4.6-8.3-1.2-11c3.1-2.5,6.4-1.4,10.4,3.3c6.3,7.5,12.7,15.1,19,22.6c0.8,1,1.7,1.9,2.6,2.9c8.5-4.7,11.3-4.3,17.5,3.4
		c3.3,4.1,7.2,6.9,12.1,9.3c4.5,2.2,8.2,6,12.1,9.4c1.7,1.4,2.9,3.4,4.3,5c10.2-5,13.6-4.2,20.8,4.4c18.4,21.9,36.7,43.8,55.1,65.7
		c1.3,1.5,2.4,3.2,3.5,4.8C408.9,272,408.9,273,408.9,274.1z M290.9,179c-2.8,2.3-5.4,4.5-8.2,6.8c1.1,1.4,2,2.7,3.1,3.8
		c3.4,3.5,5.9,7.5,6.4,12.5c0.6,7.3,5.4,12.1,10.2,17.1c6.1-5.2,12.1-10.1,18.9-15.9c-4.8-4-8.6-8.8-13.5-11
		c-6.1-2.8-11.4-6-15.2-11.5C292.2,180.2,291.6,179.7,290.9,179z"/>
	<path class="st0" d="M339.7,75.6c-1-0.8-1.3-1.1-1.7-1.4c-19.5-12.7-39.1-25.2-58.5-38c-17.5-11.6-36.3-19.8-57.1-23.5
		c-11.6-2.1-20.7,1.7-28.1,10.2c-4.4,5-9.4,8.2-16,6c-2.9-0.9-5.7-2.9-7.7-5.2c-9.1-10.7-20.4-13.9-33.7-10.3
		c-7.6,2-15,4.3-22.6,6.5c-1,0.3-2,0.7-3,0.9c-3.3,0.6-5.8-0.4-7.1-3.6c-1.2-3,0.1-6.2,3.4-7.5c12.2-4.8,24.6-8.8,37.7-9.6
		c13.5-0.9,24.6,4.7,33.4,14.8c3.1,3.6,3.6,3.6,6.7,0.1c10.4-11.6,23-16.8,38.9-14.1c23.5,4.1,44.5,13.6,64.2,26.8
		C307,40.2,326,52.2,344.9,64.3c3.3,2.1,7.1,3.6,10.6,5.5c7.2,4.1,9.3,12,4.6,18.7c-17.6,24.9-36.6,48.4-61.2,66.8
		c-1.1,0.8-2.1,1.7-3.3,2.3c-2.9,1.5-5.5,1-7.5-1.5c-2-2.5-1.9-5.3,0.3-7.6c1.6-1.7,3.6-3.1,5.5-4.5c20.9-16.1,37.3-36.2,53.3-58.1
		c-5.1,1.5-9.3,2.8-13.5,4c-28.9,8.2-58.3,11.9-88.3,10.7c-1.5-0.1-3.3,0.1-4.5,0.9c-13.5,8.9-28.6,12.6-44.4,14.2
		c-21.4,2.1-42.5,0.4-62.7-7.7c-2.9-1.2-6-2.4-8.5-4.3c-3.6-2.6-7.2-3.2-11.5-3c-31.6,1-62.6-3.4-92.7-13.1
		c-1.6-0.5-3.2-0.9-4.8-1.4c-0.3,0.3-0.5,0.6-0.8,0.9c9,10.9,17.7,22.2,27.1,32.8c17.8,19.8,38.5,35.8,63.2,46.3
		c27.1,11.6,55.4,15.5,84.6,14.3c19.6-0.8,38.8-4.1,57.4-10.7c4.4-1.6,7.7-0.3,9,3.2c1.3,3.4-0.6,6.5-5,8.1
		c-30.1,10.9-61.1,13.4-92.8,10.6c-21.6-1.9-42.4-7.2-62.1-16.3c-22.1-10.2-41.7-24.2-58.1-42.2c-12.7-13.9-24.1-29-35.8-43.9
		c-5.3-6.8-3.6-15.5,3.8-19.1c25.9-12.3,48.5-29.6,72.2-45.3c1.3-0.9,2.6-1.8,4-2.6c3.5-2.1,6.9-1.5,8.8,1.4
		c1.9,2.9,1.1,6.3-2.3,8.6c-7.4,5.1-14.9,10.3-22.5,15.2C53.4,56.2,39.4,65,25.5,73.8c-0.6,0.4-1.3,0.9-3,2c9.7,2.5,18.5,5,27.3,6.9
		C74,88,98.4,90.3,123.2,88c19.2-1.7,37.9-5.5,54.3-16.7c2.4-1.7,5-1.9,7.5-0.2C203.7,83.8,225,87.5,247,88.5
		C278.4,90,309,85.4,339.7,75.6z M142.2,98.4c26.2,8,52.2,8.1,78.3,0c-9-3-17.8-5.7-26.5-8.9c-4.3-1.6-8.3-5.7-12.4-5.7
		c-4.3,0-8.4,4.1-12.8,5.7C160,92.8,151.2,95.5,142.2,98.4z"/>
</g>
</svg>
